<?xml version="1.0" encoding="UTF-8"?>
<svg width="177px" height="40px" viewBox="0 0 177 40" version="1.1" xmlns="http://www.w3.org/2000/svg" xmlns:xlink="http://www.w3.org/1999/xlink">
    <!-- Generator: sketchtool 60.1 (101010) - https://sketch.com -->
    <title>097FF58D-ACB9-40AB-8C69-E8C57A942A5C@1.00x</title>
    <desc>Created with sketchtool.</desc>
    <g id="Overview" stroke="none" stroke-width="1" fill="none" fill-rule="evenodd">
        <g transform="translate(-195.000000, -14.000000)" fill="#FFFFFF" id="Header">
            <g>
                <g id="Client-Logo" transform="translate(195.000000, 14.000000)">
                    <path d="M40,0 C37.5,2.58333333 35.8013333,6.42683333 35,17.5 C34.3125,27 31.1875,31.25 25,35 C25,35 27.0416667,32.4166667 27.9583333,28.75 C28.875,25.0833333 28.75,20 28.75,20 C28.75,20 25,26.875 14.3438333,29.9686667 C3.5615,33.0991667 0,40 0,40 C3.75,28.8125 10.0625,24.9375 20,20 C24.6248333,17.7021667 27.5126667,15.0063333 30,10 C32.4686667,5.03116667 35,1.29166667 40,0" id="Fill-1"></path>
                    <g id="Group-5" transform="translate(43.166667, 8.500000)">
                        <path d="M19.6722,2.33398333 C19.6492,2.06465 19.5647,1.82131667 19.4187,1.60398333 C19.2725333,1.38665 19.0727,1.21498333 18.8192,1.08898333 C18.5657,0.962983333 18.2768667,0.899983333 17.9525333,0.899983333 C17.6283667,0.899983333 17.3393667,0.962983333 17.0858667,1.08898333 C16.8323667,1.21498333 16.6327,1.38665 16.4863667,1.60398333 C16.3403667,1.82131667 16.2558667,2.06465 16.2330333,2.33398333 C16.2238667,2.43831667 16.2192,2.54915 16.2192,2.66648333 C16.2192,2.77948333 16.2238667,2.88815 16.2330333,2.99248333 C16.2558667,3.25748333 16.3403667,3.49865 16.4863667,3.71598333 C16.6327,3.93331667 16.8323667,4.10481667 17.0858667,4.23081667 C17.3393667,4.35698333 17.6283667,4.41998333 17.9525333,4.41998333 C18.2768667,4.41998333 18.5657,4.35698333 18.8192,4.23081667 C19.0727,4.10481667 19.2725333,3.93331667 19.4187,3.71598333 C19.5647,3.49865 19.6492,3.25748333 19.6722,2.99248333 C19.6813667,2.88815 19.6860333,2.77948333 19.6860333,2.66648333 C19.6860333,2.54915 19.6813667,2.43831667 19.6722,2.33398333 L19.6722,2.33398333 Z M117.553367,6.11331667 C118.157533,5.83781667 118.7887,5.69998333 119.4467,5.69998333 C121.508867,5.69998333 122.9842,6.45565 123.873367,7.96648333 C124.335367,7.27331667 124.970867,6.72248333 125.780033,6.31315 C126.5887,5.90448333 127.393367,5.69998333 128.193367,5.69998333 C130.077533,5.69998333 131.433367,6.27331667 132.260033,7.41998333 C133.0867,8.56665 133.500033,10.0733167 133.500033,11.9399833 L133.500033,19.8333167 L130.033367,19.8333167 L130.033367,12.0733167 C130.033367,10.9178167 129.810867,10.08665 129.3667,9.57998333 C128.922033,9.07331667 128.2642,8.81998333 127.393367,8.81998333 C126.6287,8.81998333 126.002033,9.06915 125.513367,9.56665 C125.0242,10.0644833 124.770867,10.85565 124.753367,11.9399833 L124.753367,19.8333167 L121.2867,19.8333167 L121.2867,12.0733167 C121.2867,10.9178167 121.0642,10.08665 120.620033,9.57998333 C120.175533,9.07331667 119.517533,8.81998333 118.6467,8.81998333 C117.8642,8.81998333 117.228867,9.08248333 116.740033,9.60665 C116.251033,10.13115 116.0067,10.9533167 116.0067,12.0733167 L116.0067,19.8333167 L112.539867,19.8333167 L112.539867,5.96648333 L116.0067,5.96648333 L116.0067,7.29981667 C116.433367,6.78448333 116.9487,6.38915 117.553367,6.11331667 L117.553367,6.11331667 Z M107.3532,14.0998167 C107.246367,15.11315 106.8952,15.8333167 106.299867,16.2599833 C105.703867,16.68665 104.979867,16.8999833 104.126533,16.8999833 C103.273033,16.8999833 102.549033,16.68665 101.9532,16.2599833 C101.3577,15.8333167 101.006533,15.11315 100.8997,14.0998167 C100.864367,13.7443167 100.846533,13.3444833 100.846533,12.8999833 C100.846533,12.45565 100.864367,12.0558167 100.8997,11.6999833 C101.006533,10.68665 101.3577,9.96648333 101.9532,9.53998333 C102.549033,9.11331667 103.273033,8.89998333 104.126533,8.89998333 C104.979867,8.89998333 105.703867,9.11331667 106.299867,9.53998333 C106.8952,9.96648333 107.246367,10.68665 107.3532,11.6999833 C107.388533,12.0558167 107.406367,12.45565 107.406367,12.8999833 C107.406367,13.3444833 107.388533,13.7443167 107.3532,14.0998167 L107.3532,14.0998167 Z M110.819867,11.56665 C110.7307,10.4644833 110.401867,9.46915 109.8332,8.57998333 C109.264033,7.69115 108.486533,6.98915 107.499867,6.47315 C106.5132,5.95781667 105.388533,5.69998333 104.126533,5.69998333 C102.864367,5.69998333 101.7397,5.95781667 100.753033,6.47315 C99.7663667,6.98915 98.9888667,7.69115 98.4197,8.57998333 C97.8510333,9.46915 97.5223667,10.4644833 97.4330333,11.56665 C97.3977,11.9933167 97.3797,12.4464833 97.3797,12.92665 C97.3797,13.38915 97.3977,13.8333167 97.4330333,14.2599833 C97.5223667,15.3444833 97.8510333,16.33115 98.4197,17.2199833 C98.9888667,18.1089833 99.7663667,18.81115 100.753033,19.32665 C101.7397,19.8419833 102.864367,20.0998167 104.126533,20.0998167 C105.388533,20.0998167 106.5132,19.8419833 107.499867,19.32665 C108.486533,18.81115 109.264033,18.1089833 109.8332,17.2199833 C110.401867,16.33115 110.7307,15.3444833 110.819867,14.2599833 C110.855367,13.8333167 110.8732,13.38915 110.8732,12.92665 C110.8732,12.4464833 110.855367,11.9933167 110.819867,11.56665 L110.819867,11.56665 Z M86.6062,15.9133167 C87.2018667,16.57115 88.0063667,16.8999833 89.0197,16.8999833 C89.9083667,16.8999833 90.6463667,16.6379833 91.2330333,16.11315 C91.8197,15.58915 92.1572,14.85565 92.2463667,13.9133167 C92.2817,13.5578167 92.2997,13.2199833 92.2997,12.8999833 C92.2997,12.5799833 92.2817,12.2424833 92.2463667,11.8864833 C92.1572,10.9798167 91.8150333,10.2558167 91.2197,9.71315 C90.6238667,9.17115 89.8905333,8.89998333 89.0197,8.89998333 C88.1130333,8.89998333 87.3663667,9.16665 86.7797,9.69998333 C86.1930333,10.2333167 85.8463667,11.05115 85.7397,12.1533167 C85.7218667,12.33115 85.7130333,12.5799833 85.7130333,12.8999833 C85.7130333,14.25115 86.0105333,15.2558167 86.6062,15.9133167 L86.6062,15.9133167 Z M92.2463667,0.899983333 L95.7130333,0.899983333 L95.7130333,19.8333167 L92.2463667,19.8333167 L92.2463667,18.4999833 C91.8730333,18.92665 91.3572,19.2998167 90.6997,19.6199833 C90.0418667,19.9399833 89.2152,20.0998167 88.2197,20.0998167 C87.0638667,20.0998167 86.0463667,19.81115 85.1663667,19.2333167 C84.2863667,18.6558167 83.5972,17.89115 83.0995333,16.9399833 C82.6017,15.98915 82.3263667,14.9533167 82.2728667,13.8333167 L82.2463667,12.8999833 L82.2728667,11.9664833 C82.3263667,10.84665 82.6017,9.81115 83.0995333,8.85998333 C83.5972,7.90915 84.2863667,7.14448333 85.1663667,6.56665 C86.0463667,5.98915 87.0638667,5.69998333 88.2197,5.69998333 C89.1970333,5.69998333 90.0152,5.85998333 90.6730333,6.17998333 C91.3305333,6.49998333 91.8552,6.87331667 92.2463667,7.29981667 L92.2463667,0.899983333 Z M71.9928667,9.53998333 C72.5887,9.11331667 73.3128667,8.89998333 74.1663667,8.89998333 C75.0197,8.89998333 75.7438667,9.11331667 76.3397,9.53998333 C76.8283667,9.89015 77.1495333,10.4413167 77.3092,11.18665 L71.0232,11.18665 C71.1828667,10.4413167 71.5042,9.89015 71.9928667,9.53998333 L71.9928667,9.53998333 Z M76.8408667,15.7464833 C76.6990333,15.94815 76.5335333,16.12115 76.3397,16.2599833 C75.7438667,16.68665 75.0197,16.8999833 74.1663667,16.8999833 C73.3128667,16.8999833 72.5887,16.68665 71.9928667,16.2599833 C71.4233667,15.85165 71.0797,15.1718167 70.9573667,14.2264833 L75.7223667,14.2264833 L77.3752,14.2264833 L80.8617,14.2264833 C80.8953667,13.8098167 80.9130333,13.3773167 80.9130333,12.92665 C80.9130333,12.4464833 80.8952,11.9933167 80.8597,11.56665 C80.7705333,10.4644833 80.4417,9.46915 79.8730333,8.57998333 C79.3038667,7.69115 78.5263667,6.98915 77.5397,6.47315 C76.5530333,5.95781667 75.4283667,5.69998333 74.1663667,5.69998333 C72.9042,5.69998333 71.7795333,5.95781667 70.7928667,6.47315 C69.8062,6.98915 69.0287,7.69115 68.4595333,8.57998333 C67.8908667,9.46915 67.5620333,10.4644833 67.4728667,11.56665 C67.4373667,11.9933167 67.4193667,12.4464833 67.4193667,12.92665 C67.4193667,13.38915 67.4373667,13.8333167 67.4728667,14.2599833 C67.5620333,15.3444833 67.8908667,16.33115 68.4595333,17.2199833 C69.0287,18.1089833 69.8062,18.81115 70.7928667,19.32665 C71.7795333,19.8419833 72.9042,20.0998167 74.1663667,20.0998167 C75.4283667,20.0998167 76.5530333,19.8419833 77.5397,19.32665 C78.5263667,18.81115 79.3038667,18.1089833 79.8730333,17.2199833 C80.1700333,16.75565 80.3998667,16.26415 80.5660333,15.7464833 L76.8408667,15.7464833 Z M57.1660333,9.53998333 C57.7618667,9.11331667 58.4860333,8.89998333 59.3393667,8.89998333 C60.1927,8.89998333 60.9168667,9.11331667 61.5127,9.53998333 C62.0013667,9.89015 62.3227,10.4413167 62.4822,11.18665 L56.1965333,11.18665 C56.3560333,10.4413167 56.6773667,9.89015 57.1660333,9.53998333 L57.1660333,9.53998333 Z M62.0138667,15.7464833 C61.8722,15.94815 61.7065333,16.12115 61.5127,16.2599833 C60.9168667,16.68665 60.1927,16.8999833 59.3393667,16.8999833 C58.4860333,16.8999833 57.7618667,16.68665 57.1660333,16.2599833 C56.5963667,15.85165 56.2527,15.1718167 56.1303667,14.2264833 L60.8955333,14.2264833 L62.5483667,14.2264833 L66.0348667,14.2264833 C66.0685333,13.8098167 66.0860333,13.3773167 66.0860333,12.92665 C66.0860333,12.4464833 66.0682,11.9933167 66.0327,11.56665 C65.9435333,10.4644833 65.6147,9.46915 65.0460333,8.57998333 C64.4768667,7.69115 63.6993667,6.98915 62.7127,6.47315 C61.7260333,5.95781667 60.6013667,5.69998333 59.3393667,5.69998333 C58.0773667,5.69998333 56.9527,5.95781667 55.9660333,6.47315 C54.9793667,6.98915 54.2018667,7.69115 53.6327,8.57998333 C53.0640333,9.46915 52.7352,10.4644833 52.6460333,11.56665 C52.6105333,11.9933167 52.5925333,12.4464833 52.5925333,12.92665 C52.5925333,13.38915 52.6105333,13.8333167 52.6460333,14.2599833 C52.7352,15.3444833 53.0640333,16.33115 53.6327,17.2199833 C54.2018667,18.1089833 54.9793667,18.81115 55.9660333,19.32665 C56.9527,19.8419833 58.0773667,20.0998167 59.3393667,20.0998167 C60.6013667,20.0998167 61.7260333,19.8419833 62.7127,19.32665 C63.6993667,18.81115 64.4768667,18.1089833 65.0460333,17.2199833 C65.3430333,16.75565 65.5730333,16.26415 65.7392,15.7464833 L62.0138667,15.7464833 Z M47.1660333,9.87331667 C46.6947,10.3444833 46.4593667,11.1133167 46.4593667,12.1799833 L46.4593667,19.8333167 L42.9927,19.8333167 L42.9927,5.96648333 L46.4593667,5.96648333 L46.4593667,7.29981667 C46.9393667,6.83781667 47.4460333,6.49998333 47.9793667,6.28665 C48.5127,6.07331667 49.1880333,5.96648333 50.0060333,5.96648333 L51.9258667,5.96648333 L51.9258667,9.16665 L49.4727,9.16665 C48.4058667,9.16665 47.6367,9.40248333 47.1660333,9.87331667 L47.1660333,9.87331667 Z M41.6593667,5.96648333 L41.6593667,9.16665 L37.2325333,9.16665 L37.2325333,19.8333167 L33.7658667,19.8333167 L33.7658667,9.16665 L31.2858667,9.16665 L31.2858667,5.96648333 L33.7658667,5.96648333 L33.7658667,4.76665 C33.7658667,3.11331667 34.2233667,1.92248333 35.1392,1.19331667 C36.0545333,0.464483333 37.3565333,0.0999833333 39.0460333,0.0999833333 L41.6593667,0.0999833333 L40.4927,3.29981667 L39.3127,3.29981667 C38.6013667,3.29981667 38.0767,3.42915 37.7392,3.68665 C37.4012,3.94448333 37.2325333,4.39315 37.2325333,5.03331667 L37.2325333,5.96648333 L41.6593667,5.96648333 Z M26.5258667,9.87331667 C26.0545333,10.3444833 25.8192,11.1133167 25.8192,12.1799833 L25.8192,19.8333167 L22.3525333,19.8333167 L22.3525333,5.96648333 L25.8192,5.96648333 L25.8192,7.29981667 C26.2992,6.83781667 26.8058667,6.49998333 27.3392,6.28665 C27.8725333,6.07331667 28.5478667,5.96648333 29.3658667,5.96648333 L31.2858667,5.96648333 L31.2858667,9.16665 L28.8325333,9.16665 C27.7658667,9.16665 26.9965333,9.40248333 26.5258667,9.87331667 L26.5258667,9.87331667 Z M4.4457,15.9133167 C5.0412,16.57115 5.84586667,16.8999833 6.8592,16.8999833 C7.74786667,16.8999833 8.4857,16.6379833 9.07253333,16.11315 C9.65903333,15.58915 9.9967,14.85565 10.0858667,13.9133167 C10.1212,13.5578167 10.1390333,13.2199833 10.1390333,12.8999833 C10.1390333,12.5799833 10.1212,12.2424833 10.0858667,11.8864833 C9.9967,10.9798167 9.65453333,10.2558167 9.0592,9.71315 C8.46336667,9.17115 7.72986667,8.89998333 6.8592,8.89998333 C5.95236667,8.89998333 5.20586667,9.16665 4.61903333,9.69998333 C4.03253333,10.2333167 3.68586667,11.05115 3.5792,12.1533167 C3.5612,12.33115 3.55253333,12.5799833 3.55253333,12.8999833 C3.55253333,14.25115 3.85003333,15.2558167 4.4457,15.9133167 L4.4457,15.9133167 Z M10.0858667,5.96648333 L13.5525333,5.96648333 L13.5525333,19.8333167 L10.0858667,19.8333167 L10.0858667,18.4999833 C9.71253333,18.92665 9.1967,19.2998167 8.5392,19.6199833 C7.8812,19.9399833 7.05453333,20.0998167 6.0592,20.0998167 C4.9032,20.0998167 3.88586667,19.81115 3.0057,19.2333167 C2.1257,18.6558167 1.43653333,17.89115 0.939033333,16.9399833 C0.4412,15.98915 0.1657,14.9533167 0.112366667,13.8333167 L0.0858666667,12.8999833 L0.112366667,11.9664833 C0.1657,10.84665 0.4412,9.81115 0.939033333,8.85998333 C1.43653333,7.90915 2.1257,7.14448333 3.0057,6.56665 C3.88586667,5.98915 4.9032,5.69998333 6.0592,5.69998333 C7.03653333,5.69998333 7.85453333,5.85998333 8.51253333,6.17998333 C9.17003333,6.49998333 9.69453333,6.87331667 10.0858667,7.29981667 L10.0858667,5.96648333 Z M16.2192,19.8333167 L19.6858667,19.8333167 L19.6858667,5.96665 L16.2192,5.96665 L16.2192,19.8333167 Z" id="Fill-3"></path>
                    </g>
                </g>
            </g>
        </g>
    </g>
</svg>